<svg width="40" height="40" viewBox="0 0 40 40" fill="none" xmlns="http://www.w3.org/2000/svg">
  <rect x="2.5" y="2.5" width="35" height="35" rx="8" fill="#0B1A15" stroke="#4BE8A8" stroke-width="1.2"/>
  <path d="M20.2 28.4C21.5 26.1 22.2 23.4 22.2 20.7V19.1" stroke="#63F0B7" stroke-width="2.2" stroke-linecap="round"/>
  <path d="M13.5 30H25.5" stroke="#63F0B7" stroke-width="2.2" stroke-linecap="round"/>
  <path d="M19.7 19.7C17.2 20.3 14.7 19.6 13.1 17.8C12.1 16.7 11.5 15.3 11.3 13.7C12.9 13.4 14.5 13.5 15.9 13.9C18.4 14.6 20.1 16.3 20.7 18.8" stroke="#63F0B7" stroke-width="2.1" stroke-linecap="round" stroke-linejoin="round"/>
  <path d="M18.1 16.6L17 16" stroke="#63F0B7" stroke-width="1.5" stroke-linecap="round"/>
  <path d="M20.3 18.5C20.6 15.9 21.9 13.7 24.1 12.4C25.4 11.6 26.9 11.1 28.5 11.1C28.6 12.7 28.4 14.2 27.8 15.7C26.8 18.1 24.8 19.7 22.3 20.1" stroke="#63F0B7" stroke-width="2.1" stroke-linecap="round" stroke-linejoin="round"/>
  <path d="M24.8 15.2L23.7 15.9" stroke="#63F0B7" stroke-width="1.5" stroke-linecap="round"/>
</svg>
